<svg xmlns="http://www.w3.org/2000/svg" width="143.679" height="47.893" viewBox="0 0 143.679 47.893"><g opacity="0.401" style="mix-blend-mode:luminosity;isolation:isolate"><path d="M3.254,62.892l66.7-19.6s3.191-.758,5.317,0,66.4,19.6,66.4,19.6,4.1,3.493-.151,6.381l-65.487,19.3a12.769,12.769,0,0,1-6.685.153L3.559,69.576s-4.255-3.344-.3-6.684" transform="translate(-0.639 -42.06)" fill="#fff"/><path d="M140.48,61.113l-64.788-19.1a13.567,13.567,0,0,0-7.705,0L3.2,61.113a4.469,4.469,0,0,0,0,8.57l64.785,19.1a13.609,13.609,0,0,0,7.705,0l64.788-19.1a4.469,4.469,0,0,0,0-8.57m-.506,6.84L75.186,87.06a11.829,11.829,0,0,1-6.693,0L3.707,67.953a2.665,2.665,0,0,1,0-5.112L68.493,43.735a11.861,11.861,0,0,1,6.693,0l64.788,19.106a2.666,2.666,0,0,1,0,5.112" transform="translate(0 -41.45)" fill-rule="evenodd"/><path d="M66.324,68.756h3.943l-1.074,5.8h5.049l1.073-5.8h3.947L76.4,84.2H72.455L73.6,78.022H68.548L67.405,84.2H63.462Z" transform="translate(-25.745 -52.528)"/><path d="M95.286,83.682a3.662,3.662,0,0,0,2.89-2.919A2.315,2.315,0,0,0,95.8,77.821a3.065,3.065,0,0,0-.513.041V74.617a5.873,5.873,0,0,1,.613-.03c1.9,0,2.792.919,3.08,1.628h.04l.226-1.233h3.467l-2.147,11.58H97.1l.231-1.249h-.039A3.863,3.863,0,0,1,95.286,86.7Zm-.56.043a3.482,3.482,0,0,0,.56-.043V86.7a5.47,5.47,0,0,1-1.681.266c-3.673,0-5.286-2.879-4.672-6.2a7.408,7.408,0,0,1,6.353-6.146v3.245a3.665,3.665,0,0,0-2.9,2.943,2.341,2.341,0,0,0,2.338,2.92" transform="translate(-36.027 -54.893)"/><path d="M124.259,82.668a7.848,7.848,0,0,1-7,4.779,4.971,4.971,0,0,1-5.082-6.2,7.683,7.683,0,0,1,7.3-6.159,4.91,4.91,0,0,1,5.266,4.86h-3.526A2.08,2.08,0,0,0,119,78.331a3.393,3.393,0,0,0-3.32,2.938c-.314,1.693.563,2.941,2.225,2.941a3.351,3.351,0,0,0,2.808-1.543Z" transform="translate(-45.462 -55.099)"/><path d="M143.4,79.923a2.038,2.038,0,0,0-2.259-1.98,3.658,3.658,0,0,0-.367.015V75.083a6.249,6.249,0,0,1,.887-.064c3.525,0,5.594,2.8,4.942,6.322a5.384,5.384,0,0,1-.252.919h-5.577V79.923Zm-2.626,7.3V84.349a3.352,3.352,0,0,0,1.51-.984h3.547a8.849,8.849,0,0,1-2.905,2.963,6.811,6.811,0,0,1-2.152.9m0-9.265a3.226,3.226,0,0,0-2.63,1.964h2.63v2.337h-3.1a2.084,2.084,0,0,0,2.3,2.192,3.019,3.019,0,0,0,.8-.1v2.876a6.325,6.325,0,0,1-1.338.148,4.965,4.965,0,0,1-5-6.136,7.876,7.876,0,0,1,6.338-6.154Z" transform="translate(-54.497 -55.068)"/><path d="M164.22,71.048A5.358,5.358,0,0,0,160.5,72.3l1.329-6.82h-3.5l-3.237,17.488h3.487l.2-1.077h.043a3.216,3.216,0,0,0,2.95,1.473,7.322,7.322,0,0,0,7.084-6.262c.821-4.377-2.182-6.051-4.633-6.051m1.528,6.277a3.534,3.534,0,0,1-.428,1.143,3.986,3.986,0,0,1-.778.946,3.863,3.863,0,0,1-.5.368,3.449,3.449,0,0,1-.547.276,3.28,3.28,0,0,1-1.2.229,2.567,2.567,0,0,1-1.066-.212,2.028,2.028,0,0,1-.461-.283,2,2,0,0,1-.367-.4,2.109,2.109,0,0,1-.259-.478,2.7,2.7,0,0,1-.138-.524,3.226,3.226,0,0,1,.027-1.09,3.536,3.536,0,0,1,.43-1.133,3.993,3.993,0,0,1,.344-.5,3.756,3.756,0,0,1,.424-.436,3.412,3.412,0,0,1,1.034-.631,3.269,3.269,0,0,1,1.189-.221,2.655,2.655,0,0,1,.537.053,2.265,2.265,0,0,1,.513.162,2.109,2.109,0,0,1,.827.671,2.455,2.455,0,0,1,.264.47,2.512,2.512,0,0,1,.154.515,2.859,2.859,0,0,1,0,1.071" transform="translate(-62.916 -51.197)"/></g></svg>