<svg xmlns="http://www.w3.org/2000/svg" width="65.19" height="31.047" viewBox="0 0 65.19 31.047"><g opacity="0.401" style="mix-blend-mode:luminosity;isolation:isolate"><path d="M29.036,87.959A15.524,15.524,0,1,0,13.512,72.436,15.524,15.524,0,0,0,29.036,87.959Z" transform="translate(-13.512 -56.912)" fill="#a70b52"/><path d="M55.792,91.527H52.577V79.377H51.385V92.726h1.192v-.008h3.215Z" transform="translate(-36.488 -70.541)" fill="#fff"/><path d="M44.74,76.832H36.735V75.64h9.178c.012.23.018.461.018.7a13,13,0,1,1-12.995-13q.284,0,.566.012l0,1.183q-.282-.013-.564-.013a11.813,11.813,0,1,0,11.8,12.344Z" transform="translate(-17.412 -60.812)" fill="#fff"/><path d="M37.839,82.888a1.826,1.826,0,1,0-1.826-1.826A1.826,1.826,0,0,0,37.839,82.888Z" transform="translate(-27.162 -70.455)" fill="#fff"/><path d="M112.043,91.458h11.093v-3.35h-7.02v-12h-4.073Zm24.5-14.266a8.683,8.683,0,0,0-10.47.575,8.253,8.253,0,0,0-2.152,6,8.911,8.911,0,0,0,2.217,6.384,5.969,5.969,0,0,0,4.33,1.714c3.757,0,4.621-2.252,4.621-2.252v1.848h3.393V82.79h-6.753V85.5h3.108s.03,3.415-3.178,3.415a2.9,2.9,0,0,1-2.1-.854,5.9,5.9,0,0,1-1.331-4.235c0-3.147,1.251-5.025,3.345-5.025a2.486,2.486,0,0,1,2.544,2.021h4.32a4.745,4.745,0,0,0-1.894-3.631Z" transform="translate(-73.286 -68.314)" fill="#808183"/></g></svg>