<svg xmlns="http://www.w3.org/2000/svg" width="84.522" height="25.207" viewBox="0 0 84.522 25.207"><path d="M53.459,0H48.082V24.585h5.378V22.873a6.141,6.141,0,0,0,4.805,2.2,7.884,7.884,0,0,0,7.582-8.154,7.884,7.884,0,0,0-7.582-8.154,6.141,6.141,0,0,0-4.805,2.2V0Zm3.321,13.443a3.5,3.5,0,1,0,3.5,3.5A3.5,3.5,0,0,0,56.781,13.443Zm27.741,4.514H73.129a3.307,3.307,0,0,0,1.3,2.93c1.48.888,3.906.533,4.646-.917h5.179s-1.272,5.238-7.605,5.238-8.937-4.113-8.937-8.345,2.723-7.931,8.582-7.931,8.2,3.906,8.227,9.026ZM79.491,14.82H73.247a2.9,2.9,0,0,1,3.078-2.427A3.028,3.028,0,0,1,79.491,14.82ZM0,9.514H5.365v2a5.636,5.636,0,0,1,4.9-2.5,5.465,5.465,0,0,1,5.15,2.968,5.418,5.418,0,0,1,5.079-2.9c3.827,0,5.186,2.289,5.186,5.329V24.857H20.35V16.81s.393-3.469-2.36-3.469-2.468,3.827-2.468,3.827v7.654H10.193V17.132S10.55,13.2,7.654,13.2c-1.5,0-2.078,1.331-2.289,2.615v9.008H0ZM40.33,9.25h5.378V24.715H40.33V23a6.141,6.141,0,0,1-4.805,2.2,7.884,7.884,0,0,1-7.582-8.154A7.884,7.884,0,0,1,35.524,8.9a6.141,6.141,0,0,1,4.805,2.2Zm-3.321,4.323a3.5,3.5,0,1,1-3.5,3.5,3.5,3.5,0,0,1,3.5-3.5Z" fill="#0183a5" fill-rule="evenodd" opacity="0.401" style="mix-blend-mode:luminosity;isolation:isolate"/></svg>