<svg xmlns="http://www.w3.org/2000/svg" width="165.859" height="25.376" viewBox="0 0 165.859 25.376"><path d="M353.215,379.691l-.316-18.607h5.873v23.478h-8.444l-5.848-19.275h-.151l.334,19.275h-5.823V361.084h8.791l5.456,18.607h.128" transform="translate(-215.924 -360.326)" fill="#164193"/><path d="M237.734,363.269,234.5,384.776h-6.4l4.389-23.693h10.557l4.382,23.693H241.04l-3.164-21.507h-.142" transform="translate(-207.112 -360.326)" fill="#164193"/><path d="M267.453,379.209l2.932-18.125h9.659l.53,23.693H274.64l-.165-21.305h-.115L270.4,384.777h-6l-3.979-21.305h-.133l-.147,21.305h-5.927l.539-23.693h9.668l2.918,18.125h.119" transform="translate(-209.19 -360.326)" fill="#164193"/><path d="M321.882,381.223a2.133,2.133,0,0,0,2.284-1.7,5.351,5.351,0,0,0,.049-.908V361.084h6.019v16.987c0,.442-.049,1.33-.067,1.567-.407,4.427-3.922,5.849-8.284,5.849s-7.854-1.422-8.254-5.849a15.6,15.6,0,0,1-.06-1.567V361.084h6v17.531a4.486,4.486,0,0,0,.047.908,2.128,2.128,0,0,0,2.268,1.7" transform="translate(-213.913 -360.326)" fill="#164193"/><path d="M216.3,378.024a3.158,3.158,0,0,1,.047,1.754,2.054,2.054,0,0,1-2.321,1.6,2.11,2.11,0,0,1-2.366-2.155l-.018-2.3H205.3v1.829c0,5.294,4.149,6.881,8.595,6.881,4.308,0,7.833-1.458,8.388-5.406a11.706,11.706,0,0,0-.015-3.894c-1-4.976-10-6.434-10.672-9.213a2.87,2.87,0,0,1-.028-1.243,1.954,1.954,0,0,1,2.163-1.6,2.027,2.027,0,0,1,2.215,2.137V367.9h5.917v-1.663c0-5.169-4.645-5.975-8.007-5.975-4.206,0-7.655,1.4-8.284,5.271a8.674,8.674,0,0,0,.047,3.181c1.037,4.857,9.461,6.247,10.685,9.311" transform="translate(-205.298 -360.261)" fill="#164193"/><path d="M300.043,378.006a3.12,3.12,0,0,1,.047,1.729,2.02,2.02,0,0,1-2.282,1.567,2.094,2.094,0,0,1-2.36-2.128V376.9h-6.3v1.824c0,5.245,4.121,6.8,8.539,6.8,4.227,0,7.722-1.44,8.284-5.357a11.381,11.381,0,0,0-.03-3.864c-.989-4.9-9.893-6.357-10.549-9.121a3.144,3.144,0,0,1-.029-1.214,1.928,1.928,0,0,1,2.143-1.574,1.992,1.992,0,0,1,2.19,2.1v1.462h5.847V366.31c0-5.107-4.592-5.907-7.9-5.907-4.178,0-7.6,1.361-8.2,5.21a7.488,7.488,0,0,0,.046,3.159c1.018,4.81,9.354,6.187,10.562,9.235" transform="translate(-211.97 -360.272)" fill="#164193"/><path d="M375.6,380.929a2.209,2.209,0,0,0,2.42-1.716,6.455,6.455,0,0,0,.052-.9V374.88h-2.422V371.4h8.392v6.366c0,.444-.018.771-.085,1.567-.393,4.29-4.14,5.851-8.348,5.851-4.193,0-7.921-1.561-8.3-5.851a10.99,10.99,0,0,1-.094-1.567V367.8a12.763,12.763,0,0,1,.109-1.557c.516-4.455,4.1-5.86,8.289-5.86,4.208,0,7.907,1.391,8.327,5.86a10.633,10.633,0,0,1,.046,1.557l.013.771h-5.975v-1.324a4.917,4.917,0,0,0-.083-.908,2.166,2.166,0,0,0-2.375-1.709,2.208,2.208,0,0,0-2.352,1.709,5.413,5.413,0,0,0-.088,1.128v10.838c0,.3.014.638.042.9a2.222,2.222,0,0,0,2.435,1.716" transform="translate(-218.181 -360.271)" fill="#164193"/></svg>