<svg xmlns="http://www.w3.org/2000/svg" width="89.841" height="47.893" viewBox="0 0 89.841 47.893"><g opacity="0.401" style="mix-blend-mode:luminosity;isolation:isolate"><path d="M130.921,87.716a4.489,4.489,0,0,0,0,8.975c2.586,0,4.22-1.783,4.22-4.488C135.142,89.529,133.507,87.716,130.921,87.716Zm1.427,6.657a1.427,1.427,0,0,1-1.427,1.427,1.4,1.4,0,0,1-1.4-1.427V89.856a1.4,1.4,0,0,1,1.4-1.4,1.421,1.421,0,0,1,1.427,1.4Zm-10.639-6.509a2.328,2.328,0,0,0-1.932.743v-.8a15.459,15.459,0,0,1-3.923.267v.892c.862,0,1.4.059,1.4,1.011v8.381c-.03,1.069.149,1.842-1.427,1.842v.951h5.587V100.2h-.178c-1.07,0-1.457-.564-1.457-1.189v-3.12a2.094,2.094,0,0,0,1.812.833c2.408-.03,3.715-1.635,3.715-4.518C125.3,89.588,124.235,87.864,121.709,87.864Zm.624,6.746a1.167,1.167,0,0,1-1.159,1.189,1.192,1.192,0,0,1-1.189-1.189V90.094a1.168,1.168,0,0,1,1.189-1.159,1.143,1.143,0,0,1,1.159,1.159Z" transform="translate(-60.963 -68.198)" fill-rule="evenodd"/><path d="M88.937,87.475c-.475.475-.921.951-1.367,1.4V87.208l1.189-1.189a.652.652,0,0,1,.178.535ZM95.8,81.086q-1.353,1.139-2.645,2.348V82.72a4.434,4.434,0,0,1-1.545.446q1.718-1.719,3.567-3.3v1.189Z" transform="translate(-47.152 -64.361)" fill="#ebb53b" fill-rule="evenodd"/><path d="M85.273,63.495a81.07,81.07,0,0,1,17.862-11.264c4.219-1.724,6.656-2.437,8.381-.535,1.723,1.873-1.991,7.965-2.765,8.737-.95-.3-1.307.178-1.307.178.356-.119.98.149.564,1.1-.178.357-.891.862-1.188.03a19.465,19.465,0,0,1-2.258,3.8c-3.507,4.785-8.381,9.391-15.484,15.721C77.458,91.608,71.455,93.927,67.413,95.62c-2.913,1.1-10.313,2.7-5.468-6.24,1.01-2.318,3.715-6.182,7.578-10.64H68.334v-.415a56.569,56.569,0,0,0-7.489,10.609c-1.486,2.645-4.369,11,6.33,7.757,3.507-1.1,12.928-5.646,23.3-14.949A162.144,162.144,0,0,0,108.9,62.693c.386-.446.773-1.159.476-1.694,1.872-2.794,4.457-8.618,2.585-10.4-2.08-1.991-6.181-.683-7.757-.089A93.21,93.21,0,0,0,83.194,63.5h2.079Z" transform="translate(-33.355 -49.534)" fill="#ebb53b" fill-rule="evenodd"/><path d="M41.523,63.829c-.089.386-.327.951-1.753,1.813-3.626,2.11-9.629,2.318-14.325,2.2-7.222-.178-10.223-1.842-10.966-2.5-.416-.386-.357-.743.119-1.1,1.337-1.011,6.063-1.367,9.183-1.367s6.687.714,6.657,1.545c0,.862-1.724.98-2.11,1.011-.267.03-.564-.089-.564-.238.06-.238.475-.238.683-.3.178-.03.267-.178.267-.386,0-.267-.773-.535-1.4-.624a18.286,18.286,0,0,0-5.439-.238c-2.229.149-3.775.832-3.775,1.367,0,.5,1.308,2.021,7.816,2.228,8.381.267,12.3-1.159,14.206-2.526,1.308-1.011.327-1.694-.921-2.318-3.417-1.6-9.9-1.753-13.136-1.783a83.6,83.6,0,0,0-12.334.862c-.564.149-.446.624.357.446a91.137,91.137,0,0,1,10.848-.446c3.239.149,7.192.059,10.848,1.873.624.386.832,1.07-.119,1.6-.921.505-3.3,1.664-8.856,1.694-5.112.06-5.766-.8-6.211-1.159-.178-.149-.208-.595.475-.951a3.667,3.667,0,0,1,1.516-.327c.416,0,.564.446.119.476-.446.118-.921.178-.921.505,0,.267.3.3.624.416a14.006,14.006,0,0,0,3.864.475c2.912,0,5.142-.416,6.449-1.189.535-.267.683-1.129-.238-1.426a26.611,26.611,0,0,0-9.3-1.308,75.419,75.419,0,0,0-12.423,1.1c-.683.208-2.258.654-2.258,1.486s1.07,1.218,1.576,1.4A68.071,68.071,0,0,0,24.316,68.4c8.945.089,13.968-.654,17.059-3.3a2.834,2.834,0,0,0,.713-1.189c.059-.592-.446-.623-.565-.087Zm-8.589,6.062a12.963,12.963,0,0,0,3.745-.3v6.241c.8-1.338,1.842-1.338,3.031-1.338,1.01,0,2.318.922,2.318,2.972v2.616c0,1.663.089,2.317,1.189,2.317h.03v.773H38.58V82.4c.832,0,.892-.95.892-1.723l.03-.594V77.559c0-1.07-.357-1.694-1.04-1.694-1.4,0-1.783,1.129-1.783,2.615v1.873c.059,1.249,0,2.051,1.04,2.051v.773H32.844V82.4c1.04,0,1.308-.594,1.308-1.753V71.794c0-.862.03-1.07-.595-.951-.8.238-1.04.654-1.4,1.753l-3.477,11H27.91l-2.644-7.43-2.7,7.43h-.773L16.945,71.853c-.3-.951-1.04-1.04-1.992-1.1v-.862h6.123v.862h-.238c-.653,0-.624.208-.624.624a3.613,3.613,0,0,0,.208,1.07l2.615,7.132,1.783-4.992-.743-1.843c-.446-1.427-.565-1.991-1.932-1.991V69.89h5.528v.862l-.3.03c-.446.059-.505.267-.505.683a2.479,2.479,0,0,0,.208.862l2.081,6.746,2.318-7.34c.149-.713-.565-.98-.951-1.011v-.832Zm15.216,2.14a1.453,1.453,0,0,1-1.456,1.427,1.427,1.427,0,1,1,1.456-1.427ZM44.257,83.176h4.9v-.832c-1.07,0-1.159-.535-1.159-2.229V74.439a13.471,13.471,0,0,1-3.953.3V75.6H44.4a1.161,1.161,0,0,1,1.1,1.04v3.477c0,1.664-.149,2.229-1.248,2.229v.832ZM53.886,75.3a2.448,2.448,0,0,1,2.258-.683c.862,0,1.307.922,1.307,1.546a1.4,1.4,0,0,1-1.337,1.515,1.21,1.21,0,0,1-1.307-1.219.8.8,0,0,1,.118-.505c.09-.089.09-.119.09-.149s.03-.237-.03-.237a.507.507,0,0,0-.594.237,2.357,2.357,0,0,0-.505,1.783v3.567a1.4,1.4,0,0,0,.535,1.07.943.943,0,0,0,.683.178v.773H50.2v-.832c1.07,0,1.159-.506,1.159-2.171V76.608c0-1.07-.505-1.011-1.427-1.011v-.832a18.542,18.542,0,0,0,3.953-.238Zm43.033,4.993c0,1.663.356,1.932,1.427,2.08v.743H92.937v-.772c1.07-.119,1.427-.387,1.427-2.051V71.942a1.127,1.127,0,0,0-1.129-1.248l-.3.03v-.862a15.606,15.606,0,0,0,3.983-.238v10.67Zm-8.679-5.825a4.49,4.49,0,0,0-.029,8.975c2.585,0,4.249-1.783,4.249-4.488C92.461,76.281,90.8,74.468,88.241,74.468Zm1.4,6.657a1.4,1.4,0,0,1-1.4,1.427,1.426,1.426,0,0,1-1.426-1.427V76.608a1.42,1.42,0,0,1,1.426-1.4,1.4,1.4,0,0,1,1.4,1.4Zm-28.085-.832c0,1.663.357,1.932,1.427,2.08v.743H57.571v-.772c1.069-.119,1.456-.387,1.456-2.051V71.942a1.165,1.165,0,0,0-1.158-1.248l-.3.03v-.862a15.478,15.478,0,0,0,3.982-.238v10.67Z" transform="translate(-8.505 -54.95)" fill-rule="evenodd"/></g></svg>